<?xml version="1.0" standalone="no"?>
<!DOCTYPE svg PUBLIC "-//W3C//DTD SVG 20010904//EN"
 "http://www.w3.org/TR/2001/REC-SVG-20010904/DTD/svg10.dtd">
<svg version="1.0" xmlns="http://www.w3.org/2000/svg"
 width="900" height="900" viewBox="0 0 328.000000 300.000000"
 preserveAspectRatio="xMidYMid meet">

<g transform="translate(0.000000,300.000000) scale(0.100000,-0.100000)"
fill="#000000" stroke="none">
<path d="M1715 2261 c-16 -10 -65 -54 -108 -98 l-77 -79 43 -11 c32 -9 59 -28
103 -73 32 -34 71 -70 86 -81 l26 -19 84 80 c54 53 96 85 121 92 l38 11 -83
84 c-46 47 -95 91 -110 99 -37 19 -87 18 -123 -5z"/>
<path d="M1418 1971 c-99 -104 -96 -160 12 -265 59 -57 62 -58 106 -53 41 4
54 13 133 91 115 112 117 112 230 1 71 -69 93 -85 127 -90 39 -7 42 -5 102 53
65 63 82 93 82 143 0 43 -21 77 -83 137 -84 79 -118 72 -239 -48 -55 -55 -88
-80 -104 -80 -16 0 -49 25 -105 81 -85 84 -109 99 -163 99 -28 0 -44 -11 -98
-69z"/>
<path d="M1695 1710 c-60 -60 -91 -84 -123 -93 l-43 -13 93 -90 c141 -136 181
-135 322 8 l80 81 -39 18 c-22 9 -74 51 -115 93 -41 42 -79 76 -85 76 -6 0
-46 -36 -90 -80z"/>
<path d="M2324 1491 c-22 -10 -76 -50 -120 -88 -43 -38 -108 -91 -144 -119
l-65 -49 44 -3 c35 -3 49 2 70 21 14 13 67 52 117 85 72 48 212 149 233 168
14 13 -101 0 -135 -15z"/>
<path d="M2508 1496 c-46 -16 -75 -35 -153 -96 -33 -26 -91 -67 -130 -92 -38
-24 -76 -52 -84 -61 -12 -15 -11 -17 12 -17 13 0 30 7 38 16 7 9 45 32 83 51
39 20 96 55 126 78 79 60 112 75 170 75 51 0 75 19 53 41 -17 17 -77 20 -115
5z"/>
<path d="M1130 1420 c-55 -12 -125 -19 -196 -20 -61 0 -136 -5 -165 -10 -111
-21 -273 -116 -372 -218 l-49 -50 130 -194 130 -195 73 36 c71 35 75 36 188
35 108 -1 132 -5 353 -62 353 -91 499 -108 581 -66 15 8 71 56 125 107 53 51
120 113 147 138 l51 46 -96 13 c-52 7 -156 15 -230 17 -144 5 -206 -4 -307
-45 -41 -17 -53 -19 -53 -8 0 28 155 73 278 82 51 4 134 -1 247 -16 195 -25
260 -21 338 19 42 21 53 32 55 54 10 84 -77 114 -363 128 -280 13 -301 18
-454 122 -156 105 -246 124 -411 87z"/>
<path d="M2497 1411 c-21 -11 -61 -37 -90 -59 -29 -22 -85 -56 -124 -76 -40
-20 -73 -40 -73 -45 0 -5 21 -14 46 -21 28 -8 63 -29 87 -51 l40 -39 41 32
c123 96 266 223 266 237 0 16 -68 41 -112 41 -24 0 -61 -9 -81 -19z"/>
</g>
</svg>
