<?xml version="1.0" standalone="no"?>
<!DOCTYPE svg PUBLIC "-//W3C//DTD SVG 20010904//EN"
 "http://www.w3.org/TR/2001/REC-SVG-20010904/DTD/svg10.dtd">
<svg version="1.0" xmlns="http://www.w3.org/2000/svg"
 width="1648.000000pt" height="1508.000000pt" viewBox="0 0 1648.000000 1508.000000"
 preserveAspectRatio="xMidYMid meet">

<g transform="translate(0.000000,1508.000000) scale(0.100000,-0.100000)"
fill="#000000" stroke="none">
<path d="M8835 11460 c-73 -14 -159 -45 -234 -86 -55 -31 -143 -114 -514 -483
l-448 -446 133 -6 c150 -7 222 -27 323 -86 43 -26 169 -144 435 -409 322 -320
380 -373 412 -379 20 -4 47 -4 60 0 12 4 187 170 388 370 242 240 387 377 429
404 87 55 202 91 324 99 l98 7 -448 445 c-485 482 -503 497 -657 545 -88 28
-222 39 -301 25z"/>
<path d="M7174 9978 c-279 -280 -316 -325 -364 -431 -41 -92 -55 -161 -54
-272 1 -121 20 -200 77 -310 37 -73 66 -105 326 -367 l285 -288 186 0 c202 0
259 9 353 56 40 20 142 116 432 404 429 426 415 416 560 414 134 -1 131 1 560
-424 339 -335 387 -379 441 -403 77 -34 166 -47 330 -47 l130 0 280 283 c186
188 290 301 313 340 102 174 124 379 60 564 -45 132 -78 174 -373 471 l-280
282 -150 0 c-161 0 -239 -13 -323 -52 -37 -16 -137 -110 -428 -398 -253 -252
-395 -385 -425 -401 -32 -16 -68 -24 -126 -27 -142 -8 -140 -10 -574 422 -268
266 -389 380 -426 399 -86 45 -160 57 -359 57 l-180 0 -271 -272z"/>
<path d="M8920 8989 c-14 -6 -194 -178 -400 -383 -334 -331 -383 -376 -447
-409 -103 -54 -204 -77 -332 -77 l-106 0 420 -421 c231 -231 446 -441 477
-465 110 -85 276 -144 408 -144 89 0 200 29 300 77 l95 46 453 451 453 451
-93 7 c-150 10 -242 39 -345 109 -26 18 -210 193 -408 389 -198 197 -370 363
-382 369 -26 13 -59 13 -93 0z"/>
<path d="M11980 7590 c0 -5 -22 -10 -50 -10 -27 0 -50 -4 -50 -10 0 -5 -18
-10 -40 -10 -22 0 -40 -4 -40 -10 0 -5 -13 -10 -30 -10 -16 0 -30 -4 -30 -10
0 -5 -9 -10 -20 -10 -11 0 -20 -4 -20 -10 0 -5 -13 -10 -30 -10 -16 0 -30 -4
-30 -10 0 -5 -9 -10 -20 -10 -11 0 -20 -4 -20 -10 0 -5 -8 -10 -18 -10 -10 0
-24 -9 -32 -20 -8 -11 -22 -20 -32 -20 -10 0 -18 -4 -18 -10 0 -5 -8 -10 -18
-10 -10 0 -24 -9 -32 -20 -8 -11 -21 -20 -28 -20 -8 0 -27 -13 -42 -30 -15
-16 -33 -30 -40 -30 -6 0 -33 -22 -60 -50 -27 -27 -54 -50 -60 -50 -6 0 -60
-49 -120 -110 -60 -60 -114 -110 -120 -110 -6 0 -46 -36 -90 -80 -44 -44 -84
-80 -90 -80 -6 0 -33 -22 -60 -50 -27 -27 -54 -50 -60 -50 -6 0 -29 -18 -50
-40 -21 -22 -44 -40 -50 -40 -7 0 -25 -13 -40 -30 -15 -16 -33 -30 -40 -30 -7
0 -25 -13 -40 -30 -15 -16 -34 -30 -42 -30 -7 0 -20 -9 -28 -20 -8 -11 -21
-20 -28 -20 -8 0 -27 -13 -42 -30 -15 -16 -33 -30 -40 -30 -7 0 -25 -13 -40
-30 -15 -16 -33 -30 -40 -30 -6 0 -33 -22 -60 -50 -27 -27 -54 -50 -60 -50
-16 0 -100 -87 -100 -105 0 -8 5 -15 10 -15 6 0 10 5 10 10 0 6 63 10 170 10
107 0 170 4 170 10 0 6 35 10 85 10 l86 0 119 120 c66 66 124 120 130 120 7 0
29 18 50 40 21 22 45 40 52 40 7 0 20 9 28 20 8 11 21 20 30 20 9 0 22 9 30
20 8 11 21 20 30 20 9 0 22 9 30 20 8 11 21 20 30 20 9 0 22 9 30 20 8 11 21
20 30 20 9 0 22 9 30 20 8 11 22 20 32 20 10 0 18 5 18 10 0 6 8 10 18 10 10
0 24 9 32 20 8 11 21 20 30 20 9 0 22 9 30 20 8 11 22 20 32 20 10 0 18 5 18
10 0 6 8 10 18 10 10 0 24 9 32 20 8 11 21 20 30 20 9 0 22 9 30 20 8 11 21
20 30 20 9 0 22 9 30 20 8 11 21 20 28 20 8 0 27 14 42 30 15 17 33 30 40 30
6 0 29 18 50 40 21 22 44 40 50 40 6 0 29 18 50 40 21 22 44 40 50 40 6 0 29
18 50 40 21 22 44 40 50 40 7 0 25 14 40 30 15 17 33 30 40 30 7 0 25 14 40
30 15 17 33 30 40 30 7 0 25 14 40 30 15 17 34 30 42 30 7 0 20 9 28 20 8 11
21 20 30 20 9 0 22 9 30 20 8 11 22 20 32 20 10 0 18 5 18 10 0 6 9 10 20 10
11 0 20 5 20 10 0 6 9 10 20 10 11 0 20 5 20 10 0 6 9 10 20 10 11 0 20 5 20
10 0 6 -18 10 -40 10 -22 0 -40 5 -40 10 0 6 -67 10 -180 10 -113 0 -180 -4
-180 -10z"/>
<path d="M12780 7570 c0 -5 -22 -10 -50 -10 -27 0 -50 -4 -50 -10 0 -5 -18
-10 -40 -10 -22 0 -40 -4 -40 -10 0 -5 -13 -10 -30 -10 -16 0 -30 -4 -30 -10
0 -5 -9 -10 -20 -10 -11 0 -20 -4 -20 -10 0 -5 -13 -10 -30 -10 -16 0 -30 -4
-30 -10 0 -5 -9 -10 -20 -10 -11 0 -20 -4 -20 -10 0 -5 -8 -10 -18 -10 -10 0
-24 -9 -32 -20 -8 -11 -22 -20 -32 -20 -10 0 -18 -4 -18 -10 0 -5 -8 -10 -18
-10 -10 0 -24 -9 -32 -20 -8 -11 -21 -20 -28 -20 -8 0 -27 -13 -42 -30 -15
-16 -34 -30 -42 -30 -7 0 -20 -9 -28 -20 -8 -11 -21 -20 -28 -20 -7 0 -31 -18
-52 -40 -21 -22 -44 -40 -50 -40 -6 0 -29 -18 -50 -40 -21 -22 -44 -40 -50
-40 -6 0 -29 -18 -50 -40 -21 -22 -44 -40 -50 -40 -7 0 -25 -13 -40 -30 -15
-16 -34 -30 -42 -30 -7 0 -20 -9 -28 -20 -8 -11 -21 -20 -28 -20 -8 0 -27 -13
-42 -30 -15 -16 -34 -30 -42 -30 -7 0 -20 -9 -28 -20 -8 -11 -21 -20 -30 -20
-9 0 -22 -9 -30 -20 -8 -11 -21 -20 -30 -20 -9 0 -22 -9 -30 -20 -8 -11 -21
-20 -30 -20 -9 0 -22 -9 -30 -20 -8 -11 -22 -20 -32 -20 -10 0 -18 -4 -18 -10
0 -5 -8 -10 -18 -10 -10 0 -24 -9 -32 -20 -8 -11 -21 -20 -30 -20 -9 0 -22 -9
-30 -20 -8 -11 -21 -20 -30 -20 -9 0 -22 -9 -30 -20 -8 -11 -22 -20 -32 -20
-10 0 -18 -4 -18 -10 0 -5 -8 -10 -18 -10 -10 0 -24 -9 -32 -20 -8 -11 -21
-20 -28 -20 -8 0 -27 -13 -42 -30 -15 -16 -33 -30 -40 -30 -7 0 -25 -13 -40
-30 -15 -16 -33 -30 -40 -30 -6 0 -38 -27 -70 -60 -32 -33 -64 -60 -70 -60
-17 0 -40 -26 -40 -44 0 -12 10 -16 40 -16 22 0 40 -4 40 -10 0 -6 39 -10 96
-10 94 0 124 9 124 40 0 14 106 120 121 120 6 0 24 14 39 30 15 17 35 30 44
30 9 0 16 5 16 10 0 6 9 10 20 10 11 0 20 5 20 10 0 6 9 10 20 10 11 0 20 5
20 10 0 6 9 10 20 10 11 0 20 5 20 10 0 6 9 10 20 10 11 0 20 5 20 10 0 6 9
10 20 10 11 0 20 5 20 10 0 6 9 10 20 10 11 0 20 5 20 10 0 6 9 10 20 10 11 0
20 5 20 10 0 6 14 10 30 10 17 0 30 5 30 10 0 6 9 10 20 10 11 0 20 5 20 10 0
6 9 10 20 10 11 0 20 5 20 10 0 6 9 10 20 10 11 0 20 5 20 10 0 6 9 10 20 10
11 0 20 5 20 10 0 6 8 10 18 10 10 0 24 9 32 20 8 11 21 20 30 20 9 0 22 9 30
20 8 11 21 20 30 20 9 0 22 9 30 20 8 11 21 20 28 20 7 0 31 18 52 40 21 22
44 40 50 40 7 0 25 14 40 30 15 17 33 30 40 30 6 0 29 18 50 40 21 22 44 40
50 40 7 0 25 14 40 30 15 17 34 30 42 30 7 0 20 9 28 20 8 11 21 20 30 20 9 0
22 9 30 20 8 11 21 20 30 20 9 0 22 9 30 20 8 11 22 20 32 20 10 0 18 5 18 10
0 6 9 10 20 10 11 0 20 5 20 10 0 6 9 10 20 10 11 0 20 5 20 10 0 6 9 10 20
10 11 0 20 5 20 10 0 6 14 10 30 10 17 0 30 5 30 10 0 6 14 10 30 10 17 0 30
5 30 10 0 6 18 10 40 10 22 0 40 5 40 10 0 6 67 10 180 10 113 0 180 -4 180
-10 0 -15 49 -12 66 4 8 8 14 21 14 28 0 8 9 20 20 28 11 8 20 22 20 32 0 10
5 18 10 18 6 0 10 11 10 25 0 29 -40 75 -65 75 -8 0 -15 5 -15 10 0 6 -9 10
-20 10 -11 0 -20 5 -20 10 0 6 -13 10 -30 10 -16 0 -30 5 -30 10 0 6 -18 10
-40 10 -22 0 -40 5 -40 10 0 6 -43 10 -110 10 -67 0 -110 -4 -110 -10z"/>
<path d="M6340 7250 c0 -6 -43 -10 -110 -10 -67 0 -110 -4 -110 -10 0 -6 -27
-10 -60 -10 -33 0 -60 -4 -60 -10 0 -5 -22 -10 -50 -10 -27 0 -50 -4 -50 -10
0 -5 -22 -10 -50 -10 -27 0 -50 -4 -50 -10 0 -5 -22 -10 -50 -10 -27 0 -50 -4
-50 -10 0 -5 -18 -10 -40 -10 -22 0 -40 -4 -40 -10 0 -5 -22 -10 -50 -10 -27
0 -50 -4 -50 -10 0 -5 -22 -10 -50 -10 -27 0 -50 -4 -50 -10 0 -6 -27 -10 -60
-10 -33 0 -60 -4 -60 -10 0 -6 -30 -10 -70 -10 -40 0 -70 -4 -70 -10 0 -7
-177 -10 -510 -10 -333 0 -510 -3 -510 -10 0 -6 -37 -10 -90 -10 -53 0 -90 -4
-90 -10 0 -6 -27 -10 -60 -10 -33 0 -60 -4 -60 -10 0 -5 -22 -10 -50 -10 -27
0 -50 -4 -50 -10 0 -5 -13 -10 -30 -10 -16 0 -30 -4 -30 -10 0 -5 -18 -10 -40
-10 -22 0 -40 -4 -40 -10 0 -5 -13 -10 -30 -10 -16 0 -30 -4 -30 -10 0 -5 -9
-10 -20 -10 -11 0 -20 -4 -20 -10 0 -5 -13 -10 -30 -10 -16 0 -30 -4 -30 -10
0 -5 -9 -10 -20 -10 -11 0 -20 -4 -20 -10 0 -5 -13 -10 -30 -10 -16 0 -30 -4
-30 -10 0 -5 -9 -10 -20 -10 -11 0 -20 -4 -20 -10 0 -5 -9 -10 -20 -10 -11 0
-20 -4 -20 -10 0 -5 -9 -10 -20 -10 -11 0 -20 -4 -20 -10 0 -5 -9 -10 -20 -10
-11 0 -20 -4 -20 -10 0 -5 -13 -10 -30 -10 -16 0 -30 -4 -30 -10 0 -5 -9 -10
-20 -10 -11 0 -20 -4 -20 -10 0 -5 -9 -10 -20 -10 -11 0 -20 -4 -20 -10 0 -5
-8 -10 -18 -10 -10 0 -24 -9 -32 -20 -8 -11 -22 -20 -32 -20 -10 0 -18 -4 -18
-10 0 -5 -9 -10 -20 -10 -11 0 -20 -4 -20 -10 0 -5 -9 -10 -20 -10 -11 0 -20
-4 -20 -10 0 -5 -8 -10 -18 -10 -10 0 -24 -9 -32 -20 -8 -11 -21 -20 -30 -20
-9 0 -22 -9 -30 -20 -8 -11 -21 -20 -30 -20 -9 0 -22 -9 -30 -20 -8 -11 -21
-20 -30 -20 -9 0 -22 -9 -30 -20 -8 -11 -21 -20 -30 -20 -9 0 -22 -9 -30 -20
-8 -11 -21 -20 -28 -20 -8 0 -27 -13 -42 -30 -15 -16 -33 -30 -40 -30 -7 0
-25 -13 -40 -30 -15 -16 -33 -30 -40 -30 -6 0 -33 -22 -60 -50 -27 -27 -54
-50 -60 -50 -6 0 -51 -40 -100 -90 -49 -49 -94 -90 -100 -90 -17 0 -345 -333
-332 -338 7 -2 12 -10 12 -19 0 -8 14 -28 30 -43 17 -15 30 -34 30 -42 0 -7 9
-20 20 -28 11 -8 20 -21 20 -30 0 -9 9 -22 20 -30 11 -8 20 -21 20 -30 0 -9 9
-22 20 -30 11 -8 20 -21 20 -30 0 -9 9 -22 20 -30 11 -8 20 -21 20 -30 0 -9 9
-22 20 -30 11 -8 20 -21 20 -30 0 -9 9 -22 20 -30 11 -8 20 -21 20 -30 0 -9 9
-22 20 -30 11 -8 20 -21 20 -30 0 -9 9 -22 20 -30 11 -8 20 -21 20 -30 0 -9 9
-22 20 -30 11 -8 20 -21 20 -30 0 -9 9 -22 20 -30 11 -8 20 -21 20 -30 0 -9 9
-22 20 -30 11 -8 20 -21 20 -30 0 -9 9 -22 20 -30 11 -8 20 -21 20 -30 0 -9 9
-22 20 -30 11 -8 20 -21 20 -30 0 -9 9 -22 20 -30 11 -8 20 -21 20 -30 0 -9 9
-22 20 -30 11 -8 20 -21 20 -30 0 -9 9 -22 20 -30 11 -8 20 -21 20 -30 0 -9 9
-22 20 -30 11 -8 20 -21 20 -30 0 -9 9 -22 20 -30 11 -8 20 -21 20 -30 0 -9 9
-22 20 -30 11 -8 20 -21 20 -30 0 -9 9 -22 20 -30 11 -8 20 -21 20 -30 0 -9 9
-22 20 -30 11 -8 20 -21 20 -30 0 -9 9 -22 20 -30 11 -8 20 -21 20 -30 0 -9 9
-22 20 -30 11 -8 20 -21 20 -30 0 -9 9 -22 20 -30 11 -8 20 -21 20 -30 0 -9 9
-22 20 -30 11 -8 20 -21 20 -30 0 -9 9 -22 20 -30 11 -8 20 -21 20 -30 0 -9 9
-22 20 -30 11 -8 20 -21 20 -30 0 -9 9 -22 20 -30 11 -8 20 -21 20 -30 0 -9 9
-22 20 -30 11 -8 20 -21 20 -30 0 -9 9 -22 20 -30 11 -8 20 -21 20 -30 0 -9 9
-22 20 -30 11 -8 20 -22 20 -32 0 -11 7 -18 20 -18 11 0 20 5 20 10 0 6 8 10
18 10 10 0 24 9 32 20 8 11 21 20 30 20 9 0 22 9 30 20 8 11 22 20 32 20 10 0
18 5 18 10 0 6 8 10 18 10 10 0 24 9 32 20 8 11 22 20 32 20 10 0 18 5 18 10
0 6 9 10 20 10 11 0 20 5 20 10 0 6 9 10 20 10 11 0 20 5 20 10 0 6 9 10 20
10 11 0 20 5 20 10 0 6 14 10 30 10 17 0 30 5 30 10 0 6 9 10 20 10 11 0 20 5
20 10 0 6 14 10 30 10 17 0 30 5 30 10 0 6 14 10 30 10 17 0 30 5 30 10 0 6
18 10 40 10 22 0 40 5 40 10 0 6 18 10 40 10 22 0 40 5 40 10 0 6 23 10 50 10
28 0 50 5 50 10 0 6 33 10 80 10 47 0 80 4 80 10 0 6 77 10 210 10 133 0 210
-4 210 -10 0 -6 43 -10 110 -10 67 0 110 -4 110 -10 0 -6 30 -10 70 -10 40 0
70 -4 70 -10 0 -6 27 -10 60 -10 33 0 60 -4 60 -10 0 -5 23 -10 50 -10 28 0
50 -4 50 -10 0 -6 27 -10 60 -10 33 0 60 -4 60 -10 0 -5 18 -10 40 -10 22 0
40 -4 40 -10 0 -5 18 -10 40 -10 22 0 40 -4 40 -10 0 -5 23 -10 50 -10 28 0
50 -4 50 -10 0 -5 18 -10 40 -10 22 0 40 -4 40 -10 0 -5 18 -10 40 -10 22 0
40 -4 40 -10 0 -5 18 -10 40 -10 22 0 40 -4 40 -10 0 -5 18 -10 40 -10 22 0
40 -4 40 -10 0 -5 18 -10 40 -10 22 0 40 -4 40 -10 0 -5 18 -10 40 -10 22 0
40 -4 40 -10 0 -5 14 -10 30 -10 17 0 30 -4 30 -10 0 -5 18 -10 40 -10 22 0
40 -4 40 -10 0 -5 18 -10 40 -10 22 0 40 -4 40 -10 0 -5 18 -10 40 -10 22 0
40 -4 40 -10 0 -5 18 -10 40 -10 22 0 40 -4 40 -10 0 -5 18 -10 40 -10 22 0
40 -4 40 -10 0 -5 14 -10 30 -10 17 0 30 -4 30 -10 0 -5 18 -10 40 -10 22 0
40 -4 40 -10 0 -5 18 -10 40 -10 22 0 40 -4 40 -10 0 -5 18 -10 40 -10 22 0
40 -4 40 -10 0 -5 14 -10 30 -10 17 0 30 -4 30 -10 0 -5 18 -10 40 -10 22 0
40 -4 40 -10 0 -5 18 -10 40 -10 22 0 40 -4 40 -10 0 -5 18 -10 40 -10 22 0
40 -4 40 -10 0 -5 23 -10 50 -10 28 0 50 -4 50 -10 0 -5 18 -10 40 -10 22 0
40 -4 40 -10 0 -5 18 -10 40 -10 22 0 40 -4 40 -10 0 -5 23 -10 50 -10 28 0
50 -4 50 -10 0 -5 18 -10 40 -10 22 0 40 -4 40 -10 0 -6 27 -10 60 -10 33 0
60 -4 60 -10 0 -5 23 -10 50 -10 28 0 50 -4 50 -10 0 -6 27 -10 60 -10 33 0
60 -4 60 -10 0 -6 30 -10 70 -10 40 0 70 -4 70 -10 0 -6 33 -10 80 -10 47 0
80 -4 80 -10 0 -6 117 -10 330 -10 213 0 330 4 330 10 0 6 30 10 70 10 40 0
70 4 70 10 0 6 14 10 30 10 17 0 30 5 30 10 0 6 8 10 18 10 10 0 24 9 32 20 8
11 21 20 30 20 9 0 22 9 30 20 8 11 21 20 30 20 9 0 22 9 30 20 8 11 21 20 28
20 8 0 27 14 42 30 15 17 33 30 40 30 6 0 29 18 50 40 21 22 44 40 50 40 6 0
33 22 60 50 27 28 54 50 59 50 6 0 124 113 261 250 137 138 254 250 260 250 6
0 96 86 200 190 104 105 194 190 200 190 6 0 38 27 70 60 32 33 64 60 70 60 6
0 29 18 50 40 21 22 44 40 50 40 7 0 25 14 40 30 15 17 33 30 40 30 12 0 40
24 40 34 0 3 -40 6 -90 6 -53 0 -90 4 -90 10 0 6 -43 10 -110 10 -67 0 -110 4
-110 10 0 6 -33 10 -80 10 -47 0 -80 4 -80 10 0 6 -30 10 -70 10 -40 0 -70 4
-70 10 0 6 -30 10 -70 10 -40 0 -70 4 -70 10 0 6 -30 10 -70 10 -40 0 -70 4
-70 10 0 6 -30 10 -70 10 -40 0 -70 4 -70 10 0 6 -37 10 -90 10 -53 0 -90 4
-90 10 0 6 -40 10 -100 10 -60 0 -100 4 -100 10 0 6 -130 10 -370 10 -240 0
-370 -4 -370 -10 0 -6 -33 -10 -80 -10 -47 0 -80 -4 -80 -10 0 -6 -30 -10 -70
-10 -40 0 -70 -4 -70 -10 0 -5 -22 -10 -50 -10 -27 0 -50 -4 -50 -10 0 -5 -18
-10 -40 -10 -22 0 -40 -4 -40 -10 0 -5 -18 -10 -40 -10 -22 0 -40 -4 -40 -10
0 -5 -13 -10 -30 -10 -16 0 -30 -4 -30 -10 0 -5 -18 -10 -40 -10 -22 0 -40 -4
-40 -10 0 -5 -13 -10 -30 -10 -16 0 -30 -4 -30 -10 0 -5 -13 -10 -30 -10 -16
0 -30 -4 -30 -10 0 -5 -9 -10 -20 -10 -11 0 -20 -4 -20 -10 0 -5 -13 -10 -30
-10 -16 0 -30 -4 -30 -10 0 -5 -9 -10 -20 -10 -11 0 -20 -4 -20 -10 0 -5 -13
-10 -30 -10 -16 0 -30 -4 -30 -10 0 -5 -9 -10 -20 -10 -11 0 -20 -4 -20 -10 0
-5 -9 -10 -20 -10 -11 0 -20 -4 -20 -10 0 -5 -13 -10 -30 -10 -16 0 -30 -4
-30 -10 0 -5 -9 -10 -20 -10 -11 0 -20 -4 -20 -10 0 -15 -49 -12 -66 4 -28 29
-8 86 30 86 9 0 16 5 16 10 0 6 14 10 30 10 17 0 30 5 30 10 0 6 9 10 20 10
11 0 20 5 20 10 0 6 9 10 20 10 11 0 20 5 20 10 0 6 9 10 20 10 11 0 20 5 20
10 0 6 14 10 30 10 17 0 30 5 30 10 0 6 9 10 20 10 11 0 20 5 20 10 0 6 14 10
30 10 17 0 30 5 30 10 0 6 14 10 30 10 17 0 30 5 30 10 0 6 14 10 30 10 17 0
30 5 30 10 0 6 14 10 30 10 17 0 30 5 30 10 0 6 14 10 30 10 17 0 30 5 30 10
0 6 18 10 40 10 22 0 40 5 40 10 0 6 18 10 40 10 22 0 40 5 40 10 0 6 18 10
40 10 22 0 40 5 40 10 0 6 23 10 50 10 28 0 50 5 50 10 0 6 30 10 70 10 40 0
70 4 70 10 0 6 37 10 90 10 53 0 90 4 90 10 0 6 123 10 350 10 227 0 350 -4
350 -10 0 -6 43 -10 110 -10 67 0 110 -4 110 -10 0 -6 37 -10 90 -10 53 0 90
-4 90 -10 0 -6 30 -10 70 -10 40 0 70 -4 70 -10 0 -6 30 -10 70 -10 40 0 70
-4 70 -10 0 -6 30 -10 70 -10 40 0 70 -4 70 -10 0 -6 30 -10 70 -10 40 0 70
-4 70 -10 0 -6 33 -10 80 -10 47 0 80 -4 80 -10 0 -6 47 -10 120 -10 73 0 120
-4 120 -10 0 -6 73 -10 200 -10 127 0 200 4 200 10 0 6 33 10 80 10 47 0 80 4
80 10 0 6 23 10 50 10 28 0 50 5 50 10 0 6 18 10 40 10 22 0 40 5 40 10 0 6
14 10 30 10 17 0 30 5 30 10 0 6 14 10 30 10 17 0 30 5 30 10 0 6 9 10 20 10
11 0 20 5 20 10 0 6 14 10 30 10 17 0 30 5 30 10 0 6 9 10 20 10 11 0 20 5 20
10 0 6 13 10 28 10 16 0 34 8 42 20 8 11 22 20 32 20 10 0 18 5 18 10 0 6 7
10 15 10 20 0 145 125 145 145 0 8 5 15 10 15 6 0 10 40 10 100 0 60 -4 100
-10 100 -5 0 -10 14 -10 30 0 17 -4 30 -10 30 -5 0 -10 7 -10 15 0 20 -145
165 -165 165 -8 0 -15 5 -15 10 0 6 -9 10 -20 10 -11 0 -20 5 -20 10 0 6 -9
10 -20 10 -11 0 -20 5 -20 10 0 6 -9 10 -20 10 -11 0 -20 5 -20 10 0 6 -13 10
-30 10 -16 0 -30 5 -30 10 0 6 -13 10 -30 10 -16 0 -30 5 -30 10 0 6 -18 10
-40 10 -22 0 -40 5 -40 10 0 6 -13 10 -30 10 -16 0 -30 5 -30 10 0 6 -18 10
-40 10 -22 0 -40 5 -40 10 0 6 -18 10 -40 10 -22 0 -40 5 -40 10 0 6 -22 10
-50 10 -27 0 -50 5 -50 10 0 6 -27 10 -60 10 -33 0 -60 4 -60 10 0 6 -40 10
-100 10 -60 0 -100 4 -100 10 0 7 -160 10 -460 10 -300 0 -460 3 -460 10 0 6
-47 10 -120 10 -73 0 -120 4 -120 10 0 6 -43 10 -110 10 -67 0 -110 4 -110 10
0 6 -63 10 -170 10 -107 0 -170 4 -170 10 0 6 -30 10 -70 10 -40 0 -70 4 -70
10 0 6 -22 10 -50 10 -27 0 -50 5 -50 10 0 6 -13 10 -30 10 -16 0 -30 5 -30
10 0 6 -13 10 -30 10 -16 0 -30 5 -30 10 0 6 -13 10 -30 10 -16 0 -30 5 -30
10 0 6 -13 10 -30 10 -16 0 -30 5 -30 10 0 6 -13 10 -30 10 -16 0 -30 5 -30
10 0 6 -9 10 -20 10 -11 0 -20 5 -20 10 0 6 -9 10 -20 10 -11 0 -20 5 -20 10
0 6 -9 10 -20 10 -11 0 -20 5 -20 10 0 6 -13 10 -28 10 -16 0 -34 8 -42 20 -8
11 -22 20 -32 20 -10 0 -18 5 -18 10 0 6 -9 10 -20 10 -11 0 -20 5 -20 10 0 6
-8 10 -18 10 -10 0 -24 9 -32 20 -8 11 -21 20 -30 20 -9 0 -22 9 -30 20 -8 11
-21 20 -30 20 -9 0 -22 9 -30 20 -8 11 -21 20 -30 20 -9 0 -22 9 -30 20 -8 11
-21 20 -28 20 -8 0 -27 14 -42 30 -15 17 -34 30 -42 30 -7 0 -20 9 -28 20 -8
11 -21 20 -28 20 -8 0 -27 14 -42 30 -15 17 -34 30 -42 30 -7 0 -20 9 -28 20
-8 11 -21 20 -30 20 -9 0 -22 9 -30 20 -8 11 -21 20 -30 20 -9 0 -22 9 -30 20
-8 11 -22 20 -32 20 -10 0 -18 5 -18 10 0 6 -8 10 -18 10 -10 0 -24 9 -32 20
-8 11 -22 20 -32 20 -10 0 -18 5 -18 10 0 6 -8 10 -18 10 -10 0 -24 9 -32 20
-8 11 -22 20 -32 20 -10 0 -18 5 -18 10 0 6 -9 10 -20 10 -11 0 -20 5 -20 10
0 6 -9 10 -20 10 -11 0 -20 5 -20 10 0 6 -9 10 -20 10 -11 0 -20 5 -20 10 0 6
-9 10 -20 10 -11 0 -20 5 -20 10 0 6 -13 10 -30 10 -16 0 -30 5 -30 10 0 6 -9
10 -20 10 -11 0 -20 5 -20 10 0 6 -9 10 -20 10 -11 0 -20 5 -20 10 0 6 -13 10
-30 10 -16 0 -30 5 -30 10 0 6 -18 10 -40 10 -22 0 -40 5 -40 10 0 6 -13 10
-30 10 -16 0 -30 5 -30 10 0 6 -22 10 -50 10 -27 0 -50 5 -50 10 0 6 -37 10
-90 10 -53 0 -90 4 -90 10 0 6 -33 10 -80 10 -47 0 -80 -4 -80 -10z"/>
<path d="M12760 7190 c0 -5 -13 -10 -30 -10 -16 0 -30 -4 -30 -10 0 -5 -13
-10 -30 -10 -16 0 -30 -4 -30 -10 0 -5 -13 -10 -30 -10 -16 0 -30 -4 -30 -10
0 -5 -9 -10 -20 -10 -11 0 -20 -4 -20 -10 0 -5 -9 -10 -20 -10 -11 0 -20 -4
-20 -10 0 -5 -8 -10 -18 -10 -10 0 -24 -9 -32 -20 -8 -11 -22 -20 -32 -20 -10
0 -18 -4 -18 -10 0 -5 -7 -10 -16 -10 -9 0 -29 -13 -44 -30 -15 -16 -33 -30
-40 -30 -7 0 -25 -13 -40 -30 -15 -16 -33 -30 -40 -30 -6 0 -29 -18 -50 -40
-21 -22 -44 -40 -50 -40 -7 0 -25 -13 -40 -30 -15 -16 -33 -30 -40 -30 -7 0
-25 -13 -40 -30 -15 -16 -33 -30 -40 -30 -7 0 -25 -13 -40 -30 -15 -16 -34
-30 -42 -30 -7 0 -20 -9 -28 -20 -8 -11 -21 -20 -30 -20 -9 0 -22 -9 -30 -20
-8 -11 -22 -20 -32 -20 -10 0 -18 -4 -18 -10 0 -5 -9 -10 -20 -10 -11 0 -20
-4 -20 -10 0 -5 -9 -10 -20 -10 -11 0 -20 -4 -20 -10 0 -5 -9 -10 -20 -10 -11
0 -20 -4 -20 -10 0 -5 -9 -10 -20 -10 -11 0 -20 -4 -20 -10 0 -5 -9 -10 -20
-10 -11 0 -20 -4 -20 -10 0 -5 -13 -10 -30 -10 -16 0 -30 -4 -30 -10 0 -5 -9
-10 -20 -10 -11 0 -20 -4 -20 -10 0 -5 -9 -10 -20 -10 -11 0 -20 -4 -20 -10 0
-5 -13 -10 -30 -10 -16 0 -30 -4 -30 -10 0 -5 -9 -10 -20 -10 -11 0 -20 -4
-20 -10 0 -5 -8 -10 -18 -10 -10 0 -24 -9 -32 -20 -8 -11 -21 -20 -30 -20 -9
0 -22 -9 -30 -20 -8 -11 -20 -20 -27 -20 -13 0 -123 -103 -123 -115 0 -3 14
-5 30 -5 17 0 30 -4 30 -10 0 -5 23 -10 50 -10 28 0 50 -4 50 -10 0 -5 18 -10
40 -10 22 0 40 -4 40 -10 0 -5 18 -10 40 -10 22 0 40 -4 40 -10 0 -5 14 -10
30 -10 17 0 30 -4 30 -10 0 -5 9 -10 20 -10 11 0 20 -4 20 -10 0 -5 9 -10 20
-10 11 0 20 -4 20 -10 0 -5 9 -10 20 -10 11 0 20 -4 20 -10 0 -5 9 -10 20 -10
11 0 20 -4 20 -10 0 -5 9 -10 20 -10 11 0 20 -4 20 -10 0 -5 8 -10 18 -10 10
0 24 -9 32 -20 8 -11 20 -20 27 -20 17 0 183 -166 183 -183 0 -7 9 -19 20 -27
11 -8 20 -22 20 -32 0 -10 5 -18 10 -18 6 0 10 -9 10 -20 0 -29 28 -25 60 10
15 17 33 30 40 30 6 0 33 23 60 50 27 28 54 50 60 50 6 0 29 18 50 40 21 22
44 40 50 40 6 0 29 18 50 40 21 22 44 40 50 40 6 0 33 23 60 50 27 28 54 50
60 50 6 0 29 18 50 40 21 22 44 40 50 40 6 0 33 23 60 50 27 28 54 50 60 50 6
0 33 23 60 50 27 28 54 50 60 50 6 0 33 23 60 50 27 28 54 50 60 50 6 0 42 32
80 70 38 39 74 70 80 70 6 0 51 41 100 90 49 50 94 90 100 90 6 0 46 36 90 80
44 44 84 80 90 80 16 0 60 47 60 64 0 8 5 16 12 18 15 5 -75 98 -95 98 -7 0
-19 9 -27 20 -8 11 -22 20 -32 20 -10 0 -18 5 -18 10 0 6 -9 10 -20 10 -11 0
-20 5 -20 10 0 6 -13 10 -30 10 -16 0 -30 5 -30 10 0 6 -13 10 -30 10 -16 0
-30 5 -30 10 0 6 -18 10 -40 10 -22 0 -40 5 -40 10 0 6 -70 10 -190 10 -120 0
-190 -4 -190 -10z"/>
</g>
</svg>
